<mxfile host="app.diagrams.net" modified="2023-06-26T00:19:58.127Z" agent="Mozilla/5.0 (Macintosh; Intel Mac OS X 10_15_7) AppleWebKit/537.36 (KHTML, like Gecko) Chrome/114.0.0.0 Safari/537.36" etag="x3ieQCIFcMCY9MmuJhpx" version="21.5.0" type="github">
  <diagram name="Page-1" id="2YBvvXClWsGukQMizWep">
    <mxGraphModel dx="1876" dy="661" grid="1" gridSize="10" guides="1" tooltips="1" connect="1" arrows="1" fold="1" page="1" pageScale="1" pageWidth="850" pageHeight="1100" math="0" shadow="0">
      <root>
        <mxCell id="0" />
        <mxCell id="1" parent="0" />
        <mxCell id="aM9ryv3xv72pqoxQDRHE-1" value="Units&lt;br&gt;controller" style="shape=umlLifeline;perimeter=lifelinePerimeter;whiteSpace=wrap;html=1;container=0;dropTarget=0;collapsible=0;recursiveResize=0;outlineConnect=0;portConstraint=eastwest;newEdgeStyle={&quot;edgeStyle&quot;:&quot;elbowEdgeStyle&quot;,&quot;elbow&quot;:&quot;vertical&quot;,&quot;curved&quot;:0,&quot;rounded&quot;:0};size=40;" parent="1" vertex="1">
          <mxGeometry x="40" y="40" width="100" height="560" as="geometry" />
        </mxCell>
        <mxCell id="aM9ryv3xv72pqoxQDRHE-5" value="Untis&lt;br&gt;Service" style="shape=umlLifeline;perimeter=lifelinePerimeter;whiteSpace=wrap;html=1;container=0;dropTarget=0;collapsible=0;recursiveResize=0;outlineConnect=0;portConstraint=eastwest;newEdgeStyle={&quot;edgeStyle&quot;:&quot;elbowEdgeStyle&quot;,&quot;elbow&quot;:&quot;vertical&quot;,&quot;curved&quot;:0,&quot;rounded&quot;:0};" parent="1" vertex="1">
          <mxGeometry x="200" y="40" width="100" height="560" as="geometry" />
        </mxCell>
        <mxCell id="Eow9V9qrAzXgovBorhqP-1" value="Units&lt;br&gt;Dao" style="shape=umlLifeline;perimeter=lifelinePerimeter;whiteSpace=wrap;html=1;container=0;dropTarget=0;collapsible=0;recursiveResize=0;outlineConnect=0;portConstraint=eastwest;newEdgeStyle={&quot;edgeStyle&quot;:&quot;elbowEdgeStyle&quot;,&quot;elbow&quot;:&quot;vertical&quot;,&quot;curved&quot;:0,&quot;rounded&quot;:0};" parent="1" vertex="1">
          <mxGeometry x="360" y="40" width="100" height="560" as="geometry" />
        </mxCell>
        <mxCell id="Eow9V9qrAzXgovBorhqP-3" value="Database" style="shape=umlLifeline;perimeter=lifelinePerimeter;whiteSpace=wrap;html=1;container=0;dropTarget=0;collapsible=0;recursiveResize=0;outlineConnect=0;portConstraint=eastwest;newEdgeStyle={&quot;edgeStyle&quot;:&quot;elbowEdgeStyle&quot;,&quot;elbow&quot;:&quot;vertical&quot;,&quot;curved&quot;:0,&quot;rounded&quot;:0};" parent="1" vertex="1">
          <mxGeometry x="520" y="40" width="100" height="560" as="geometry" />
        </mxCell>
        <mxCell id="Eow9V9qrAzXgovBorhqP-5" value="Student" style="shape=umlActor;verticalLabelPosition=bottom;verticalAlign=top;html=1;outlineConnect=0;" parent="1" vertex="1">
          <mxGeometry x="-400" y="40" width="30" height="60" as="geometry" />
        </mxCell>
        <mxCell id="Eow9V9qrAzXgovBorhqP-17" value="1.login successful" style="text;html=1;strokeColor=none;fillColor=none;align=center;verticalAlign=middle;whiteSpace=wrap;rounded=0;" parent="1" vertex="1">
          <mxGeometry x="-340" y="100" width="60" height="30" as="geometry" />
        </mxCell>
        <mxCell id="Eow9V9qrAzXgovBorhqP-18" value="Unit Page" style="shape=umlLifeline;perimeter=lifelinePerimeter;whiteSpace=wrap;html=1;container=0;dropTarget=0;collapsible=0;recursiveResize=0;outlineConnect=0;portConstraint=eastwest;newEdgeStyle={&quot;edgeStyle&quot;:&quot;elbowEdgeStyle&quot;,&quot;elbow&quot;:&quot;vertical&quot;,&quot;curved&quot;:0,&quot;rounded&quot;:0};size=40;" parent="1" vertex="1">
          <mxGeometry x="-120" y="40" width="100" height="560" as="geometry" />
        </mxCell>
        <mxCell id="Eow9V9qrAzXgovBorhqP-19" value="Web" style="shape=umlLifeline;perimeter=lifelinePerimeter;whiteSpace=wrap;html=1;container=0;dropTarget=0;collapsible=0;recursiveResize=0;outlineConnect=0;portConstraint=eastwest;newEdgeStyle={&quot;edgeStyle&quot;:&quot;elbowEdgeStyle&quot;,&quot;elbow&quot;:&quot;vertical&quot;,&quot;curved&quot;:0,&quot;rounded&quot;:0};size=40;" parent="1" vertex="1">
          <mxGeometry x="-280" y="40" width="100" height="560" as="geometry" />
        </mxCell>
        <mxCell id="Eow9V9qrAzXgovBorhqP-30" value="2.choose subject success" style="text;html=1;strokeColor=none;fillColor=none;align=center;verticalAlign=middle;whiteSpace=wrap;rounded=0;" parent="1" vertex="1">
          <mxGeometry x="-210" y="100" width="130" height="70" as="geometry" />
        </mxCell>
        <mxCell id="Eow9V9qrAzXgovBorhqP-49" value="3.choose &lt;br&gt;Unit" style="text;html=1;align=center;verticalAlign=middle;resizable=0;points=[];autosize=1;strokeColor=none;fillColor=none;" parent="1" vertex="1">
          <mxGeometry x="-30" y="150" width="70" height="40" as="geometry" />
        </mxCell>
        <mxCell id="Eow9V9qrAzXgovBorhqP-51" value="4.queryBySubject" style="text;html=1;strokeColor=none;fillColor=none;align=center;verticalAlign=middle;whiteSpace=wrap;rounded=0;" parent="1" vertex="1">
          <mxGeometry x="100" y="160" width="130" height="30" as="geometry" />
        </mxCell>
        <mxCell id="VWIVNXtLc2JzitBILpdr-3" value="5.&amp;nbsp;queryBySubject" style="text;html=1;strokeColor=none;fillColor=none;align=center;verticalAlign=middle;whiteSpace=wrap;rounded=0;" parent="1" vertex="1">
          <mxGeometry x="267.5" y="190" width="130" height="30" as="geometry" />
        </mxCell>
        <mxCell id="MlEnfI_EKVcdXDiiBxDx-9" value="&amp;nbsp; 9.Page&amp;lt;Units&amp;gt;" style="text;html=1;strokeColor=none;fillColor=none;align=center;verticalAlign=middle;whiteSpace=wrap;rounded=0;" parent="1" vertex="1">
          <mxGeometry x="140" y="350" width="60" height="30" as="geometry" />
        </mxCell>
        <mxCell id="MlEnfI_EKVcdXDiiBxDx-12" value="&amp;nbsp; 8.List&amp;lt;Unit&amp;gt;" style="text;html=1;strokeColor=none;fillColor=none;align=center;verticalAlign=middle;whiteSpace=wrap;rounded=0;" parent="1" vertex="1">
          <mxGeometry x="267.5" y="320" width="115" height="30" as="geometry" />
        </mxCell>
        <mxCell id="MlEnfI_EKVcdXDiiBxDx-13" value="&amp;nbsp; 10.get all Unit" style="text;html=1;strokeColor=none;fillColor=none;align=center;verticalAlign=middle;whiteSpace=wrap;rounded=0;" parent="1" vertex="1">
          <mxGeometry x="-20" y="400" width="60" height="30" as="geometry" />
        </mxCell>
        <mxCell id="MlEnfI_EKVcdXDiiBxDx-29" style="edgeStyle=orthogonalEdgeStyle;rounded=0;orthogonalLoop=1;jettySize=auto;html=1;exitX=1;exitY=0;exitDx=0;exitDy=0;entryX=0;entryY=0;entryDx=0;entryDy=0;entryPerimeter=0;" parent="1" source="MlEnfI_EKVcdXDiiBxDx-27" target="MlEnfI_EKVcdXDiiBxDx-28" edge="1">
          <mxGeometry relative="1" as="geometry">
            <Array as="points">
              <mxPoint x="-310" y="130" />
              <mxPoint x="-310" y="130" />
            </Array>
          </mxGeometry>
        </mxCell>
        <mxCell id="MlEnfI_EKVcdXDiiBxDx-39" style="edgeStyle=orthogonalEdgeStyle;rounded=0;orthogonalLoop=1;jettySize=auto;html=1;exitX=1;exitY=0.05;exitDx=0;exitDy=0;exitPerimeter=0;entryX=0;entryY=0.05;entryDx=0;entryDy=0;entryPerimeter=0;" parent="1" source="MlEnfI_EKVcdXDiiBxDx-28" target="MlEnfI_EKVcdXDiiBxDx-31" edge="1">
          <mxGeometry relative="1" as="geometry" />
        </mxCell>
        <mxCell id="MlEnfI_EKVcdXDiiBxDx-28" value="" style="rounded=0;whiteSpace=wrap;html=1;points=[[0,0,0,0,0],[0,0.05,0,0,0],[0,0.1,0,0,0],[0,0.14,0,0,0],[0,0.19,0,0,0],[0,0.24,0,0,0],[0,0.25,0,0,0],[0,0.29,0,0,0],[0,0.33,0,0,0],[0,0.38,0,0,0],[0,0.43,0,0,0],[0,0.48,0,0,0],[0,0.5,0,0,0],[0,0.52,0,0,0],[0,0.57,0,0,0],[0,0.62,0,0,0],[0,0.67,0,0,0],[0,0.71,0,0,0],[0,0.75,0,0,0],[0,0.76,0,0,0],[0,0.81,0,0,0],[0,0.86,0,0,0],[0,0.9,0,0,0],[0,0.95,0,0,0],[0,1,0,0,0],[0.25,0,0,0,0],[0.25,1,0,0,0],[0.5,0,0,0,0],[0.5,1,0,0,0],[0.75,0,0,0,0],[0.75,1,0,0,0],[1,0,0,0,0],[1,0.05,0,0,0],[1,0.1,0,0,0],[1,0.14,0,0,0],[1,0.19,0,0,0],[1,0.24,0,0,0],[1,0.25,0,0,0],[1,0.29,0,0,0],[1,0.33,0,0,0],[1,0.38,0,0,0],[1,0.43,0,0,0],[1,0.48,0,0,0],[1,0.5,0,0,0],[1,0.5,0,8,0],[1,0.52,0,0,0],[1,0.57,0,0,0],[1,0.62,0,0,0],[1,0.67,0,0,0],[1,0.71,0,0,0],[1,0.75,0,0,0],[1,0.76,0,0,0],[1,0.81,0,0,0],[1,0.86,0,0,0],[1,0.9,0,0,0],[1,0.95,0,0,0],[1,1,0,0,0]];" parent="1" vertex="1">
          <mxGeometry x="-237.5" y="130" width="15" height="470" as="geometry" />
        </mxCell>
        <mxCell id="DGR9vzJdzpEGOhXwGuKG-5" style="edgeStyle=orthogonalEdgeStyle;rounded=0;orthogonalLoop=1;jettySize=auto;html=1;exitX=1;exitY=0.14;exitDx=0;exitDy=0;exitPerimeter=0;entryX=0;entryY=0.14;entryDx=0;entryDy=0;entryPerimeter=0;" parent="1" source="MlEnfI_EKVcdXDiiBxDx-31" target="MlEnfI_EKVcdXDiiBxDx-32" edge="1">
          <mxGeometry relative="1" as="geometry" />
        </mxCell>
        <mxCell id="DGR9vzJdzpEGOhXwGuKG-24" style="edgeStyle=orthogonalEdgeStyle;rounded=0;orthogonalLoop=1;jettySize=auto;html=1;exitX=0;exitY=0.75;exitDx=0;exitDy=0;exitPerimeter=0;entryX=1;entryY=0.75;entryDx=0;entryDy=0;dashed=1;" parent="1" source="MlEnfI_EKVcdXDiiBxDx-31" target="MlEnfI_EKVcdXDiiBxDx-27" edge="1">
          <mxGeometry relative="1" as="geometry" />
        </mxCell>
        <mxCell id="MlEnfI_EKVcdXDiiBxDx-31" value="" style="rounded=0;whiteSpace=wrap;html=1;points=[[0,0,0,0,0],[0,0.05,0,0,0],[0,0.1,0,0,0],[0,0.14,0,0,0],[0,0.19,0,0,0],[0,0.24,0,0,0],[0,0.25,0,0,0],[0,0.29,0,0,0],[0,0.33,0,0,0],[0,0.38,0,0,0],[0,0.43,0,0,0],[0,0.48,0,0,0],[0,0.5,0,0,0],[0,0.52,0,0,0],[0,0.57,0,0,0],[0,0.62,0,0,0],[0,0.67,0,0,0],[0,0.71,0,0,0],[0,0.75,0,0,0],[0,0.76,0,0,0],[0,0.81,0,0,0],[0,0.86,0,0,0],[0,0.9,0,0,0],[0,0.95,0,0,0],[0,1,0,0,0],[0.25,0,0,0,0],[0.25,1,0,0,0],[0.5,0,0,0,0],[0.5,1,0,0,0],[0.75,0,0,0,0],[0.75,1,0,0,0],[1,0,0,0,0],[1,0.05,0,0,0],[1,0.1,0,0,0],[1,0.14,0,0,0],[1,0.19,0,0,0],[1,0.24,0,0,0],[1,0.25,0,0,0],[1,0.29,0,0,0],[1,0.33,0,0,0],[1,0.38,0,0,0],[1,0.43,0,0,0],[1,0.48,0,0,0],[1,0.5,0,0,0],[1,0.5,0,8,0],[1,0.52,0,0,0],[1,0.57,0,0,0],[1,0.62,0,0,0],[1,0.67,0,0,0],[1,0.71,0,0,0],[1,0.75,0,0,0],[1,0.76,0,0,0],[1,0.81,0,0,0],[1,0.86,0,0,0],[1,0.9,0,0,0],[1,0.95,0,0,0],[1,1,0,0,0]];" parent="1" vertex="1">
          <mxGeometry x="-77.5" y="130" width="15" height="470" as="geometry" />
        </mxCell>
        <mxCell id="MlEnfI_EKVcdXDiiBxDx-42" style="edgeStyle=orthogonalEdgeStyle;rounded=0;orthogonalLoop=1;jettySize=auto;html=1;exitX=1;exitY=0.14;exitDx=0;exitDy=0;exitPerimeter=0;entryX=0;entryY=0.14;entryDx=0;entryDy=0;entryPerimeter=0;" parent="1" source="MlEnfI_EKVcdXDiiBxDx-32" target="MlEnfI_EKVcdXDiiBxDx-34" edge="1">
          <mxGeometry relative="1" as="geometry" />
        </mxCell>
        <mxCell id="DGR9vzJdzpEGOhXwGuKG-23" style="edgeStyle=orthogonalEdgeStyle;rounded=0;orthogonalLoop=1;jettySize=auto;html=1;exitX=0;exitY=0.67;exitDx=0;exitDy=0;exitPerimeter=0;entryX=1;entryY=0.67;entryDx=0;entryDy=0;entryPerimeter=0;dashed=1;" parent="1" source="MlEnfI_EKVcdXDiiBxDx-32" target="MlEnfI_EKVcdXDiiBxDx-31" edge="1">
          <mxGeometry relative="1" as="geometry">
            <mxPoint y="390" as="targetPoint" />
          </mxGeometry>
        </mxCell>
        <mxCell id="MlEnfI_EKVcdXDiiBxDx-32" value="" style="rounded=0;whiteSpace=wrap;html=1;points=[[0,0,0,0,0],[0,0.05,0,0,0],[0,0.1,0,0,0],[0,0.14,0,0,0],[0,0.19,0,0,0],[0,0.24,0,0,0],[0,0.25,0,0,0],[0,0.29,0,0,0],[0,0.33,0,0,0],[0,0.38,0,0,0],[0,0.43,0,0,0],[0,0.48,0,0,0],[0,0.5,0,0,0],[0,0.52,0,0,0],[0,0.57,0,0,0],[0,0.62,0,0,0],[0,0.67,0,0,0],[0,0.71,0,0,0],[0,0.75,0,0,0],[0,0.76,0,0,0],[0,0.81,0,0,0],[0,0.86,0,0,0],[0,0.9,0,0,0],[0,0.95,0,0,0],[0,1,0,0,0],[0.25,0,0,0,0],[0.25,1,0,0,0],[0.5,0,0,0,0],[0.5,1,0,0,0],[0.75,0,0,0,0],[0.75,1,0,0,0],[1,0,0,0,0],[1,0.05,0,0,0],[1,0.1,0,0,0],[1,0.14,0,0,0],[1,0.19,0,0,0],[1,0.24,0,0,0],[1,0.25,0,0,0],[1,0.29,0,0,0],[1,0.33,0,0,0],[1,0.38,0,0,0],[1,0.43,0,0,0],[1,0.48,0,0,0],[1,0.5,0,0,0],[1,0.5,0,8,0],[1,0.52,0,0,0],[1,0.57,0,0,0],[1,0.62,0,0,0],[1,0.67,0,0,0],[1,0.71,0,0,0],[1,0.75,0,0,0],[1,0.76,0,0,0],[1,0.81,0,0,0],[1,0.86,0,0,0],[1,0.9,0,0,0],[1,0.95,0,0,0],[1,1,0,0,0]];" parent="1" vertex="1">
          <mxGeometry x="82.5" y="130" width="15" height="470" as="geometry" />
        </mxCell>
        <mxCell id="MlEnfI_EKVcdXDiiBxDx-48" style="edgeStyle=orthogonalEdgeStyle;rounded=0;orthogonalLoop=1;jettySize=auto;html=1;exitX=1;exitY=0.19;exitDx=0;exitDy=0;exitPerimeter=0;entryX=0;entryY=0.19;entryDx=0;entryDy=0;entryPerimeter=0;" parent="1" source="MlEnfI_EKVcdXDiiBxDx-34" target="MlEnfI_EKVcdXDiiBxDx-35" edge="1">
          <mxGeometry relative="1" as="geometry" />
        </mxCell>
        <mxCell id="DGR9vzJdzpEGOhXwGuKG-22" style="edgeStyle=orthogonalEdgeStyle;rounded=0;orthogonalLoop=1;jettySize=auto;html=1;exitX=0;exitY=0.57;exitDx=0;exitDy=0;exitPerimeter=0;entryX=1;entryY=0.57;entryDx=0;entryDy=0;entryPerimeter=0;dashed=1;" parent="1" source="MlEnfI_EKVcdXDiiBxDx-34" target="MlEnfI_EKVcdXDiiBxDx-32" edge="1">
          <mxGeometry relative="1" as="geometry" />
        </mxCell>
        <mxCell id="MlEnfI_EKVcdXDiiBxDx-34" value="" style="rounded=0;whiteSpace=wrap;html=1;points=[[0,0,0,0,0],[0,0.05,0,0,0],[0,0.1,0,0,0],[0,0.14,0,0,0],[0,0.19,0,0,0],[0,0.24,0,0,0],[0,0.25,0,0,0],[0,0.29,0,0,0],[0,0.33,0,0,0],[0,0.38,0,0,0],[0,0.43,0,0,0],[0,0.48,0,0,0],[0,0.5,0,0,0],[0,0.52,0,0,0],[0,0.57,0,0,0],[0,0.62,0,0,0],[0,0.67,0,0,0],[0,0.71,0,0,0],[0,0.75,0,0,0],[0,0.76,0,0,0],[0,0.81,0,0,0],[0,0.86,0,0,0],[0,0.9,0,0,0],[0,0.95,0,0,0],[0,1,0,0,0],[0.25,0,0,0,0],[0.25,1,0,0,0],[0.5,0,0,0,0],[0.5,1,0,0,0],[0.75,0,0,0,0],[0.75,1,0,0,0],[1,0,0,0,0],[1,0.05,0,0,0],[1,0.1,0,0,0],[1,0.14,0,0,0],[1,0.19,0,0,0],[1,0.24,0,0,0],[1,0.25,0,0,0],[1,0.29,0,0,0],[1,0.33,0,0,0],[1,0.38,0,0,0],[1,0.43,0,0,0],[1,0.48,0,0,0],[1,0.5,0,0,0],[1,0.5,0,8,0],[1,0.52,0,0,0],[1,0.57,0,0,0],[1,0.62,0,0,0],[1,0.67,0,0,0],[1,0.71,0,0,0],[1,0.75,0,0,0],[1,0.76,0,0,0],[1,0.81,0,0,0],[1,0.86,0,0,0],[1,0.9,0,0,0],[1,0.95,0,0,0],[1,1,0,0,0]];" parent="1" vertex="1">
          <mxGeometry x="242.5" y="130" width="15" height="470" as="geometry" />
        </mxCell>
        <mxCell id="DGR9vzJdzpEGOhXwGuKG-18" style="edgeStyle=orthogonalEdgeStyle;rounded=0;orthogonalLoop=1;jettySize=auto;html=1;exitX=1;exitY=0.25;exitDx=0;exitDy=0;exitPerimeter=0;entryX=0;entryY=0.25;entryDx=0;entryDy=0;entryPerimeter=0;" parent="1" source="MlEnfI_EKVcdXDiiBxDx-35" target="MlEnfI_EKVcdXDiiBxDx-38" edge="1">
          <mxGeometry relative="1" as="geometry" />
        </mxCell>
        <mxCell id="DGR9vzJdzpEGOhXwGuKG-21" style="edgeStyle=orthogonalEdgeStyle;rounded=0;orthogonalLoop=1;jettySize=auto;html=1;exitX=0;exitY=0.48;exitDx=0;exitDy=0;exitPerimeter=0;entryX=1;entryY=0.48;entryDx=0;entryDy=0;entryPerimeter=0;dashed=1;" parent="1" source="MlEnfI_EKVcdXDiiBxDx-35" target="MlEnfI_EKVcdXDiiBxDx-34" edge="1">
          <mxGeometry relative="1" as="geometry" />
        </mxCell>
        <mxCell id="MlEnfI_EKVcdXDiiBxDx-35" value="" style="rounded=0;whiteSpace=wrap;html=1;points=[[0,0,0,0,0],[0,0.05,0,0,0],[0,0.1,0,0,0],[0,0.14,0,0,0],[0,0.19,0,0,0],[0,0.24,0,0,0],[0,0.25,0,0,0],[0,0.29,0,0,0],[0,0.33,0,0,0],[0,0.38,0,0,0],[0,0.43,0,0,0],[0,0.48,0,0,0],[0,0.5,0,0,0],[0,0.52,0,0,0],[0,0.57,0,0,0],[0,0.62,0,0,0],[0,0.67,0,0,0],[0,0.71,0,0,0],[0,0.75,0,0,0],[0,0.76,0,0,0],[0,0.81,0,0,0],[0,0.86,0,0,0],[0,0.9,0,0,0],[0,0.95,0,0,0],[0,1,0,0,0],[0.25,0,0,0,0],[0.25,1,0,0,0],[0.5,0,0,0,0],[0.5,1,0,0,0],[0.75,0,0,0,0],[0.75,1,0,0,0],[1,0,0,0,0],[1,0.05,0,0,0],[1,0.1,0,0,0],[1,0.14,0,0,0],[1,0.19,0,0,0],[1,0.24,0,0,0],[1,0.25,0,0,0],[1,0.29,0,0,0],[1,0.33,0,0,0],[1,0.38,0,0,0],[1,0.43,0,0,0],[1,0.48,0,0,0],[1,0.5,0,0,0],[1,0.5,0,8,0],[1,0.52,0,0,0],[1,0.57,0,0,0],[1,0.62,0,0,0],[1,0.67,0,0,0],[1,0.71,0,0,0],[1,0.75,0,0,0],[1,0.76,0,0,0],[1,0.81,0,0,0],[1,0.86,0,0,0],[1,0.9,0,0,0],[1,0.95,0,0,0],[1,1,0,0,0]];" parent="1" vertex="1">
          <mxGeometry x="402.5" y="130" width="15" height="470" as="geometry" />
        </mxCell>
        <mxCell id="DGR9vzJdzpEGOhXwGuKG-19" style="edgeStyle=orthogonalEdgeStyle;rounded=0;orthogonalLoop=1;jettySize=auto;html=1;exitX=0;exitY=0.38;exitDx=0;exitDy=0;exitPerimeter=0;entryX=1;entryY=0.38;entryDx=0;entryDy=0;entryPerimeter=0;dashed=1;" parent="1" source="MlEnfI_EKVcdXDiiBxDx-38" target="MlEnfI_EKVcdXDiiBxDx-35" edge="1">
          <mxGeometry relative="1" as="geometry" />
        </mxCell>
        <mxCell id="MlEnfI_EKVcdXDiiBxDx-38" value="" style="rounded=0;whiteSpace=wrap;html=1;points=[[0,0,0,0,0],[0,0.05,0,0,0],[0,0.1,0,0,0],[0,0.14,0,0,0],[0,0.19,0,0,0],[0,0.24,0,0,0],[0,0.25,0,0,0],[0,0.29,0,0,0],[0,0.33,0,0,0],[0,0.38,0,0,0],[0,0.43,0,0,0],[0,0.48,0,0,0],[0,0.5,0,0,0],[0,0.52,0,0,0],[0,0.57,0,0,0],[0,0.62,0,0,0],[0,0.67,0,0,0],[0,0.71,0,0,0],[0,0.75,0,0,0],[0,0.76,0,0,0],[0,0.81,0,0,0],[0,0.86,0,0,0],[0,0.9,0,0,0],[0,0.95,0,0,0],[0,1,0,0,0],[0.25,0,0,0,0],[0.25,1,0,0,0],[0.5,0,0,0,0],[0.5,1,0,0,0],[0.75,0,0,0,0],[0.75,1,0,0,0],[1,0,0,0,0],[1,0.05,0,0,0],[1,0.1,0,0,0],[1,0.14,0,0,0],[1,0.19,0,0,0],[1,0.24,0,0,0],[1,0.25,0,0,0],[1,0.29,0,0,0],[1,0.33,0,0,0],[1,0.38,0,0,0],[1,0.43,0,0,0],[1,0.48,0,0,0],[1,0.5,0,0,0],[1,0.5,0,8,0],[1,0.52,0,0,0],[1,0.57,0,0,0],[1,0.62,0,0,0],[1,0.67,0,0,0],[1,0.71,0,0,0],[1,0.75,0,0,0],[1,0.76,0,0,0],[1,0.81,0,0,0],[1,0.86,0,0,0],[1,0.9,0,0,0],[1,0.95,0,0,0],[1,1,0,0,0]];" parent="1" vertex="1">
          <mxGeometry x="562.5" y="130" width="15" height="470" as="geometry" />
        </mxCell>
        <mxCell id="DGR9vzJdzpEGOhXwGuKG-16" value="6. subjectId" style="text;html=1;strokeColor=none;fillColor=none;align=center;verticalAlign=middle;whiteSpace=wrap;rounded=0;" parent="1" vertex="1">
          <mxGeometry x="425" y="210" width="130" height="30" as="geometry" />
        </mxCell>
        <mxCell id="DGR9vzJdzpEGOhXwGuKG-20" value="7.Unit" style="text;html=1;strokeColor=none;fillColor=none;align=center;verticalAlign=middle;whiteSpace=wrap;rounded=0;" parent="1" vertex="1">
          <mxGeometry x="440" y="280" width="115" height="30" as="geometry" />
        </mxCell>
        <mxCell id="DGR9vzJdzpEGOhXwGuKG-25" value="&amp;nbsp; 11.choose Unit successful" style="text;html=1;strokeColor=none;fillColor=none;align=center;verticalAlign=middle;whiteSpace=wrap;rounded=0;" parent="1" vertex="1">
          <mxGeometry x="-190" y="430" width="60" height="30" as="geometry" />
        </mxCell>
        <mxCell id="MlEnfI_EKVcdXDiiBxDx-27" value="" style="rounded=0;whiteSpace=wrap;html=1;" parent="1" vertex="1">
          <mxGeometry x="-392.5" y="130" width="15" height="470" as="geometry" />
        </mxCell>
      </root>
    </mxGraphModel>
  </diagram>
</mxfile>
